<?xml version="1.0" encoding="UTF-8" standalone="no"?>
<svg width="356" height="360" viewBox="0 0 356 360" fill="none" xmlns="http://www.w3.org/2000/svg">
<path d="M43.4946 152.741C43.4946 95.6393 88.8239 50.31 145.926 50.31H209.741C266.843 50.31 312.172 95.6393 312.172 152.741V207.259C312.172 264.361 266.843 309.69 209.741 309.69H145.926C88.8239 309.69 43.4946 264.361 43.4946 207.259V152.741Z" fill="#1976D2"/>
<path d="M284.161 152.741C284.161 111.101 251.381 77.3205 209.741 77.3205H145.926C104.286 77.3205 71.505 111.101 71.505 152.741V207.259C71.505 248.899 104.286 282.679 145.926 282.679H209.741C251.381 282.679 284.161 248.899 284.161 207.259V152.741Z" fill="#42A5F5"/>
<path d="M177.833 152.741C177.833 170.321 163.506 184.648 145.926 184.648C128.346 184.648 114.019 170.321 114.019 152.741C114.019 135.161 128.346 120.834 145.926 120.834C163.506 120.834 177.833 135.161 177.833 152.741Z" fill="#1976D2"/>
<path d="M241.648 152.741C241.648 170.321 227.321 184.648 209.741 184.648C192.161 184.648 177.834 170.321 177.834 152.741C177.834 135.161 192.161 120.834 209.741 120.834C227.321 120.834 241.648 135.161 241.648 152.741Z" fill="#1976D2"/>
</svg>